<?xml version="1.0" encoding="UTF-8"?>
<svg version="1.1" xmlns="http://www.w3.org/2000/svg" width="1982" height="2046">
<path d="M0 0 C2.99440439 0.00564137 5.98880311 0.00846112 8.98321152 0.0110817 C36.47620937 0.0460657 63.84671257 0.26582999 91.22195053 3.06805801 C93.8345709 3.33161719 96.44840635 3.57829829 99.06295395 3.82196426 C172.85708174 10.75614305 245.27392866 26.35021674 315.70016098 49.31805801 C316.38066513 49.5387294 317.06116928 49.75940079 317.76229477 49.98675919 C379.89182433 70.1417012 440.94478317 97.48327874 497.10543442 130.79608536 C500.70684659 132.90854334 504.35705907 134.92649289 508.01266098 136.94305801 C523.52869089 145.6051767 538.22721901 155.60746439 553.01266098 165.44305801 C553.78170761 165.95393967 554.55075424 166.46482132 555.34310532 166.99118423 C565.26327888 173.58722436 575.05906964 180.32020906 584.70016098 187.31805801 C585.57197006 187.94969864 586.44377914 188.58133926 587.34200668 189.23212051 C597.62995616 196.71655908 607.78343366 204.3479881 617.70016098 212.31805801 C618.34050278 212.83223282 618.98084457 213.34640762 619.64059067 213.87616348 C628.21925652 220.77765662 636.70680299 227.77846617 645.07613754 234.93231583 C646.76730319 236.37534893 648.46390717 237.81180619 650.16109848 239.24774551 C657.14943002 245.17729749 663.966128 251.25538776 670.66891098 257.50555801 C673.39457065 260.04537726 676.16556778 262.53036406 678.95016098 265.00555801 C682.97529947 268.60734052 686.78321802 272.37969918 690.57516098 276.22430801 C692.43509794 278.05689296 694.33195642 279.75914382 696.32516098 281.44305801 C705.16190976 289.03519429 713.52115976 297.53008999 721.03219223 306.43133926 C723.15546054 308.83306899 725.41993938 311.06510364 727.70016098 313.31805801 C731.22770745 316.80847242 734.57400572 320.36450115 737.79781723 324.13446426 C739.70696822 326.32587166 741.67007414 328.46117529 743.64718246 330.59125137 C748.3851819 335.69863494 752.89337961 340.91891546 757.26266098 346.34930801 C760.12942546 349.84088014 763.09800254 353.23323783 766.07516098 356.63055801 C771.75375826 363.13417306 777.1529897 369.81219676 782.41793442 376.65350723 C783.64420344 378.24541549 784.87901618 379.83073144 786.11422348 381.41571426 C792.88925299 390.14380602 799.44323861 399.03165423 805.96383286 407.95087051 C807.54881442 410.11172277 809.1458747 412.26293626 810.74703598 414.41180801 C837.33040683 450.34417669 860.2448126 489.21674242 881.24947739 528.60467911 C882.5806068 531.09444221 883.9252248 533.57631373 885.27437973 536.05633926 C892.11947023 548.73000382 898.1320243 561.77547732 904.11715317 574.87128067 C905.57851087 578.05318196 907.06007685 581.22448761 908.55172348 584.39227676 C925.36109789 620.24065658 938.55929395 657.66990111 950.70016098 695.31805801 C951.10089828 696.55797501 951.50163559 697.797892 951.91451645 699.07538223 C971.6596804 760.8293462 983.86512702 825.2062973 990.51266098 889.63055801 C990.66184982 891.06099442 990.66184982 891.06099442 990.81405258 892.52032852 C994.05693904 924.05333029 995.07965856 955.415931 995.01821899 987.09442902 C995.01257624 990.04994384 995.00975722 993.00545293 995.0071373 995.96097183 C994.9703482 1024.51206289 994.5782296 1052.88942498 991.70016098 1081.31805801 C991.52127156 1083.14388689 991.34256593 1084.96973378 991.16402817 1086.79559708 C982.15949735 1177.61051488 961.35605062 1266.83452381 867.26412582 1479.65204239 C865.56591477 1482.54690107 863.89172722 1485.4548826 862.21969223 1488.36493301 C842.23949669 1523.04351734 819.9287455 1556.46367641 795.70016098 1588.31805801 C795.27525375 1588.87944473 794.85034653 1589.44083145 794.41256332 1590.01922989 C788.35290923 1598.02191219 782.07888362 1605.83165128 775.72750473 1613.60321426 C773.33726216 1616.52903597 770.97938125 1619.47817725 768.63766098 1622.44305801 C761.09188085 1631.89514049 753.09587741 1640.96920238 744.92281723 1649.88055801 C743.02594334 1651.96078527 741.16623155 1654.06362699 739.32516098 1656.19305801 C731.84246 1664.78495937 724.04166967 1673.04857491 715.93453598 1681.05243301 C713.91354101 1683.10169365 712.01147149 1685.1973109 710.13766098 1687.38055801 C705.13338358 1693.20713452 699.72659702 1698.63960024 693.88766098 1703.63055801 C690.31113973 1706.69308819 687.00654057 1709.9710999 683.70016098 1713.31805801 C679.85864129 1717.20179221 675.97643302 1720.94360603 671.81344223 1724.48602676 C669.6433977 1726.36726684 667.53489747 1728.30793014 665.43014145 1730.26166153 C660.21812415 1735.09832779 654.87964684 1739.68666711 649.33687973 1744.14618301 C646.7759607 1746.25562151 644.32892643 1748.4469345 641.88766098 1750.69305801 C636.9229854 1755.21138264 631.69928701 1759.32367737 626.39937973 1763.43524551 C623.29979919 1765.84047411 620.23840495 1768.28940399 617.18600082 1770.75409317 C609.50116219 1776.95479608 601.68192877 1782.95215145 593.73629379 1788.81464005 C592.41304045 1789.7916897 591.09194772 1790.77167475 589.77340317 1791.75506973 C567.922713 1808.03499795 544.93463844 1823.0922917 521.70016098 1837.31805801 C520.76897446 1837.89040176 519.83778793 1838.46274551 518.87838364 1839.05243301 C504.62678106 1847.7873602 490.18165194 1856.05402994 475.41207504 1863.88055801 C472.97005058 1865.17499806 470.5335164 1866.47906798 468.09859848 1867.78680801 C463.32156339 1870.34113956 458.51669048 1872.8390957 453.70016098 1875.31805801 C452.0234935 1876.18189102 452.0234935 1876.18189102 450.31295395 1877.0631752 C419.2266235 1893.03321249 387.38793564 1906.96462016 354.70016098 1919.31805801 C353.99800461 1919.584048 353.29584824 1919.85003799 352.5724144 1920.12408829 C271.74069307 1950.69362784 186.78616603 1970.43459978 88.51266098 1979.56805801 C87.08852386 1979.69282013 87.08852386 1979.69282013 85.6356163 1979.82010269 C82.87240673 1980.05928527 80.1087291 1980.2917731 77.34469223 1980.52118301 C76.17607651 1980.62083107 76.17607651 1980.62083107 74.98385239 1980.72249222 C59.04677459 1982.00701439 43.11337781 1982.47912961 27.12984848 1982.48602676 C25.31174318 1982.48926002 23.49363812 1982.49262541 21.67553329 1982.49611282 C17.88897731 1982.50204065 14.10244392 1982.50395961 10.31588364 1982.50336075 C6.51375139 1982.50327999 2.71174092 1982.51015351 -1.09036636 1982.52386856 C-33.36037675 1982.63825099 -65.25240995 1981.45858726 -97.36233902 1978.06805801 C-98.38512955 1977.96168015 -99.40792007 1977.85530228 -100.46170425 1977.74570084 C-184.33698726 1968.97099393 -267.14962448 1949.77045878 -484.44681168 1854.99481583 C-487.11442299 1853.4270292 -489.79246707 1851.87843026 -492.47468948 1850.33580399 C-507.47940938 1841.70311365 -522.18904747 1832.74444169 -536.58987808 1823.12665176 C-539.31782033 1821.30605752 -542.05391785 1819.49831869 -544.79202652 1817.69305801 C-561.35405768 1806.74967467 -577.50058943 1795.33503762 -593.29983902 1783.31805801 C-593.86122574 1782.89315079 -594.42261246 1782.46824356 -595.00101089 1782.03046036 C-603.0036932 1775.97080626 -610.81343228 1769.69678065 -618.58499527 1763.34540176 C-621.51081698 1760.95515919 -624.45995826 1758.59727829 -627.42483902 1756.25555801 C-636.8769215 1748.70977788 -645.95098339 1740.71377445 -654.86233902 1732.54071426 C-656.94256627 1730.64384038 -659.045408 1728.78412859 -661.17483902 1726.94305801 C-669.76674038 1719.46035703 -678.03035592 1711.65956671 -686.03421402 1703.55243301 C-688.08347466 1701.53143804 -690.17909191 1699.62936853 -692.36233902 1697.75555801 C-698.18891553 1692.75128061 -703.62138125 1687.34449405 -708.61233902 1681.50555801 C-711.6748692 1677.92903676 -714.9528809 1674.6244376 -718.29983902 1671.31805801 C-722.18357321 1667.47653832 -725.92538704 1663.59433005 -729.46780777 1659.43133926 C-731.34904785 1657.26129474 -733.28971115 1655.15279451 -735.24344254 1653.04803848 C-740.08010879 1647.83602118 -744.66844811 1642.49754388 -749.12796402 1636.95477676 C-751.23740251 1634.39385773 -753.4287155 1631.94682347 -755.67483902 1629.50555801 C-760.19316364 1624.54088243 -764.30545838 1619.31718404 -768.41702652 1614.01727676 C-770.82225511 1610.91769622 -773.27118499 1607.85630199 -775.73587418 1604.80389786 C-781.93657709 1597.11905922 -787.93393245 1589.2998258 -793.79642105 1581.35419083 C-794.7734707 1580.03093748 -795.75345575 1578.70984475 -796.73685074 1577.3913002 C-813.01677896 1555.54061003 -828.0740727 1532.55253548 -842.29983902 1509.31805801 C-842.87218277 1508.38687149 -843.44452652 1507.45568497 -844.03421402 1506.49628067 C-852.76914121 1492.24467809 -861.03581094 1477.79954898 -868.86233902 1463.02997208 C-870.15677907 1460.58794761 -871.46084899 1458.15141343 -872.76858902 1455.71649551 C-875.32292057 1450.93946042 -877.82087671 1446.13458752 -880.29983902 1441.31805801 C-880.87572769 1440.20027969 -881.45161636 1439.08250137 -882.04495621 1437.93085098 C-897.69931804 1407.45899572 -911.36869024 1376.272191 -923.55887222 1344.26166153 C-924.27614252 1342.38021544 -924.99787622 1340.50047283 -925.71976089 1338.62079239 C-958.50019915 1252.92668217 -977.33083386 1162.33558548 -985.53812027 1065.65399551 C-985.60136993 1064.88883621 -985.6646196 1064.12367691 -985.72978592 1063.33533096 C-986.95823088 1047.68151941 -987.466316 1032.05533342 -987.50296402 1016.35712051 C-987.50998451 1014.48863069 -987.51707135 1012.62014111 -987.52421951 1010.75165176 C-987.54361821 1004.81545034 -987.54865317 998.87928794 -987.54983902 992.94305801 C-987.55028088 991.93255135 -987.55072273 990.92204468 -987.55117798 989.8809166 C-987.5577806 961.10353987 -987.51751103 932.43558856 -984.55307388 903.78058243 C-984.28607567 901.18421945 -984.03215007 898.58678386 -983.77981949 895.98895645 C-975.19180328 808.52405463 -955.93700684 721.64843219 -915.29983902 617.31805801 C-914.82691422 616.15983536 -914.35398941 615.0016127 -913.86673355 613.80829239 C-907.33640083 597.90552971 -900.25850907 582.27652518 -892.91409683 566.73456192 C-891.85530522 564.49367718 -890.79984879 562.25121292 -889.74808121 560.00702286 C-883.2443955 546.13179627 -876.37697981 532.54392791 -868.89456558 519.17059708 C-867.20544496 516.1492123 -865.52953411 513.12072477 -863.85452652 510.09149551 C-844.70774939 475.56127332 -823.60113096 442.2067537 -800.29983902 410.31805801 C-799.77325699 409.59457169 -799.24667496 408.87108536 -798.70413589 408.1256752 C-791.1037429 397.69334322 -783.38597004 387.3791939 -775.29983902 377.31805801 C-774.78566422 376.67771622 -774.27148941 376.03737442 -773.74173355 375.37762833 C-766.84024041 366.79896248 -759.83943087 358.311416 -752.68558121 349.94208145 C-751.2425481 348.25091581 -749.80609085 346.55431182 -748.37015152 344.85712051 C-742.86636223 338.37089587 -737.25220605 332.01691446 -731.45071793 325.7951088 C-728.82068609 322.9740545 -726.24137463 320.12635687 -723.73733902 317.19305801 C-720.46059833 313.39556392 -716.90499374 309.89544395 -713.33768082 306.37518692 C-710.79600446 303.85479618 -708.35736466 301.30378429 -706.04983902 298.56805801 C-698.51951181 289.76140416 -690.03869587 281.45561835 -681.18655777 273.98602676 C-678.78482804 271.86275845 -676.55279339 269.59827961 -674.29983902 267.31805801 C-670.80942462 263.79051154 -667.25339588 260.44421328 -663.48343277 257.22040176 C-661.29202537 255.31125078 -659.15672174 253.34814485 -657.02664566 251.37103653 C-651.9192621 246.63303709 -646.69898158 242.12483938 -641.26858902 237.75555801 C-637.7770169 234.88879353 -634.3846592 231.92021645 -630.98733902 228.94305801 C-623.95450817 222.80237874 -616.69740961 217.01048427 -609.29983902 211.31805801 C-608.23186228 210.49027919 -607.16414935 209.66215988 -606.09671402 208.83368301 C-602.84268674 206.3131907 -599.57462378 203.81150681 -596.29983902 201.31805801 C-595.68914566 200.85286758 -595.0784523 200.38767715 -594.44925308 199.90839005 C-578.54466929 187.82042172 -562.1825298 176.44064167 -545.54983902 165.38055801 C-544.76514236 164.85825607 -543.98044571 164.33595413 -543.17197037 163.79782486 C-515.93342463 145.68311782 -487.88037951 129.16292326 -459.01321793 113.76874161 C-456.52345482 112.43761219 -454.0415833 111.09299419 -451.56155777 109.74383926 C-438.88162428 102.89536289 -425.82658717 96.87970493 -412.72464371 90.89227676 C-409.60747029 89.45946138 -406.50236499 88.00429431 -403.40140152 86.53680801 C-329.9347563 51.94080053 -250.15690683 28.64506947 -98.36233902 4.56805801 C-97.39880508 4.4670076 -96.43527115 4.36595718 -95.44253922 4.26184464 C-63.61517696 0.96116372 -31.97671953 -0.0611867 0 0 Z " fill="#1DD65F" transform="translate(987.2998390197754,31.681941986083984)"/>
<path d="M0 0 C2.13357544 -0.00005615 4.26715088 -0.00011722 6.40072632 -0.00018311 C33.36096089 0.00600192 60.3024302 0.20712253 87.25 1.0625 C89.15738449 1.12130844 89.15738449 1.12130844 91.103302 1.18130493 C106.22570296 1.66386746 121.28689472 2.52816079 136.36865234 3.73461914 C144.65402521 4.38360733 152.95254687 4.72018655 161.25708008 5.01391602 C163.4375 5.1875 163.4375 5.1875 166.23535156 5.66674805 C169.79468706 6.24558783 173.30440418 6.52097312 176.90234375 6.765625 C178.41499374 6.87229265 179.92760592 6.97949738 181.44018555 7.0871582 C182.24080414 7.14360504 183.04142273 7.20005188 183.86630249 7.25820923 C220.23306497 9.85725709 256.38247385 14.10807592 292.47540283 19.21568298 C297.93448257 19.98575851 303.3978858 20.69817817 308.87060547 21.36523438 C333.60127223 24.39629103 358.12461237 29.27776289 382.625 33.75 C383.6345575 33.93355042 384.64411499 34.11710083 385.68426514 34.30621338 C408.64771669 38.48865665 431.44344795 43.32213382 454.1875 48.5625 C455.22688721 48.80150024 456.26627441 49.04050049 457.3371582 49.28674316 C480.66896413 54.65650675 503.86095858 60.25490164 526.80664062 67.11523438 C530.97371859 68.34585611 535.1502391 69.54109416 539.328125 70.734375 C616.75417615 92.91566593 692.08056544 120.69608317 764.4375 156.1875 C765.19498535 156.55794434 765.9524707 156.92838867 766.73291016 157.31005859 C770.54734053 159.17965887 774.34465048 161.08032035 778.12890625 163.01025391 C779.86456417 163.89533666 781.60181497 164.77729684 783.33984375 165.65771484 C863.53774305 206.35207314 863.53774305 206.35207314 876.07421875 243.84375 C879.38996644 254.5305988 880.62407199 264.48081498 880.62280273 275.65283203 C880.62497272 277.78568995 880.64311528 279.91801569 880.66210938 282.05078125 C880.71511527 294.10628682 879.45453857 304.98165248 874.8125 316.1875 C874.28354126 317.47986572 874.28354126 317.47986572 873.74389648 318.79833984 C868.93740174 330.1661322 862.08973702 339.39033439 853.4375 348.1875 C852.67824219 348.95964844 851.91898438 349.73179687 851.13671875 350.52734375 C831.18774601 369.62742403 805.91723172 374.73664667 779.3125 374.46875 C771.75312743 374.26510311 765.44249353 373.1616872 758.4375 370.1875 C757.55578125 369.836875 756.6740625 369.48625 755.765625 369.125 C745.14733057 364.60122959 734.82428256 358.88963745 724.96533203 352.90356445 C659.83520625 313.4193658 585.97679046 286.356835 513.4375 264.1875 C512.04494995 263.75993408 512.04494995 263.75993408 510.62426758 263.32373047 C491.36155776 257.4382695 471.94867547 252.18118654 452.4375 247.1875 C451.74253418 247.00898499 451.04756836 246.83046997 450.33154297 246.64654541 C411.19682076 236.59448193 371.9499139 228.34412352 332.17773438 221.22216797 C328.3586551 220.53707647 324.54264512 219.83761073 320.72851562 219.12548828 C309.12145569 216.96495577 297.51623123 215.11111123 285.8125 213.5625 C283.5156928 213.25495727 281.21910554 212.94588963 278.92276001 212.63491821 C276.86735154 212.3570806 274.81138256 212.08339822 272.75537109 211.81005859 C269.41477033 211.34857774 266.09676728 210.7907245 262.77368164 210.21704102 C256.13434106 209.09906929 249.47541976 208.31027783 242.78515625 207.56640625 C241.50304764 207.4218399 240.22093903 207.27727356 238.89997864 207.12832642 C235.47280999 206.74283722 232.04509537 206.36245251 228.61714935 205.98394394 C226.48809689 205.74868471 224.35918261 205.512205 222.23028564 205.27554321 C201.68904152 202.9959847 181.15053321 201.00247327 160.53564453 199.5168457 C156.68565714 199.22218147 152.84714331 198.83561669 149.0057373 198.4463501 C136.95160016 197.23170631 124.91583435 196.60153375 112.8125 196.125 C109.92817835 196.0081993 107.04394833 195.88970047 104.15982056 195.76820374 C102.39120398 195.69399748 100.62247096 195.62248743 98.85360718 195.5544281 C94.65926719 195.38139513 90.50095422 195.11180199 86.32373047 194.69262695 C78.99575303 193.99925595 71.65127263 193.82976709 64.296875 193.640625 C63.52295158 193.61993202 62.74902817 193.59923904 61.95165253 193.57791901 C42.53199892 193.06603489 23.11309601 192.94770523 3.6875 192.9375 C2.78142502 192.936469 1.87535004 192.935438 0.94181824 192.93437576 C-25.17501709 192.90664258 -51.22687425 193.31742612 -77.3125 194.625 C-77.98913193 194.65877243 -78.66576385 194.69254486 -79.36289978 194.7273407 C-95.50016443 195.48722959 -95.50016443 195.48722959 -111.58084106 196.9690094 C-114.3743395 197.27701051 -117.16565377 197.41951355 -119.97265625 197.546875 C-184.58379973 200.79569605 -250.37849358 208.98522201 -313.45410156 223.47851562 C-316.66041661 224.20983348 -319.87187365 224.9129468 -323.0859375 225.609375 C-346.55301156 230.71008814 -369.97874943 236.11145238 -393.02734375 242.875 C-399.81614379 244.86126172 -406.65996302 246.64110679 -413.5625 248.1875 C-414.35591797 248.36555176 -415.14933594 248.54360352 -415.96679688 248.72705078 C-432.69004401 252.15439758 -452.52831465 252.48385083 -468.5625 246.1875 C-470.33367187 245.53394531 -470.33367187 245.53394531 -472.140625 244.8671875 C-496.06286634 235.3914945 -513.04206254 217.32514203 -523.5625 194.1875 C-533.7486707 169.92216808 -533.53257935 141.22349961 -523.95751953 116.7902832 C-513.81902841 92.13266122 -495.91916818 74.9009873 -471.5625 64.1875 C-464.2695641 61.30639444 -456.91294768 59.09165574 -449.3125 57.1875 C-447.282483 56.66823874 -445.25253502 56.14870759 -443.22265625 55.62890625 C-442.2495752 55.38156738 -441.27649414 55.13422852 -440.27392578 54.87939453 C-436.75996576 53.98271142 -433.25430746 53.05872594 -429.75 52.125 C-428.57824219 51.81304688 -427.40648437 51.50109375 -426.19921875 51.1796875 C-423.61174859 50.47376116 -421.0334301 49.75179933 -418.45703125 49.0078125 C-407.09129713 45.74310512 -395.63888644 43.16515564 -384.07080078 40.72216797 C-377.6254265 39.34827565 -371.20882322 37.84356763 -364.8125 36.2578125 C-355.688359 34.01500075 -346.5447361 32.24645174 -337.27929688 30.68774414 C-331.05423953 29.63672713 -324.86902756 28.46833453 -318.6875 27.1875 C-308.09627557 25.01754926 -297.44237193 23.31569152 -286.75732422 21.67871094 C-283.73389697 21.21385264 -280.71264748 20.73663545 -277.69140625 20.2578125 C-247.80257337 15.60170223 -217.68950022 12.23850777 -187.625 8.9375 C-186.93545227 8.86063965 -186.24590454 8.7837793 -185.53546143 8.70458984 C-160.58178657 5.93773614 -135.51413393 4.60149025 -110.45269775 3.25421143 C-107.26884301 3.08209579 -104.08519862 2.90624802 -100.90154171 2.73051739 C-91.77340356 2.22721209 -82.64430045 1.7462844 -73.51386642 1.28652573 C-71.73465667 1.19623641 -69.95559161 1.10310729 -68.17654419 1.00967407 C-45.46922688 -0.16043539 -22.73059422 -0.00994836 0 0 Z " fill="#000000" transform="translate(836.5625,548.8125)"/>
<path d="M0 0 C1.10783844 -0.0049649 2.21567688 -0.00992981 3.35708618 -0.01504517 C7.02265058 -0.02962991 10.68817109 -0.03647751 14.35375977 -0.04199219 C15.63011858 -0.04481956 16.90647739 -0.04764694 18.22151375 -0.05056 C24.33089988 -0.06402444 30.44026714 -0.0738951 36.54966682 -0.07776189 C42.7582791 -0.08171849 48.96673389 -0.0935812 55.17529297 -0.12011719 C84.66314992 -0.24332146 114.06455414 -0.00059602 143.51782227 1.55175781 C144.71907682 1.61450645 145.92033138 1.6772551 147.15798759 1.74190521 C159.41164518 2.39793925 171.59506151 3.25309081 183.7797699 4.71484375 C189.00529276 5.32408016 194.23617219 5.71606267 199.48266602 6.09082031 C213.23260606 7.14077954 226.91571053 8.65608702 240.60766602 10.28613281 C241.87514679 10.43630859 243.14262756 10.58648438 244.44851685 10.74121094 C279.97824047 14.98148068 315.22101233 20.78653034 350.28681946 27.89242554 C355.20232805 28.8867664 360.1251486 29.83546575 365.05297852 30.76660156 C387.15278284 34.97383212 408.91887451 40.29503135 430.7019043 45.90234375 C434.92516649 46.98880584 439.15361436 48.05212027 443.38500977 49.10644531 C459.65469563 53.18893989 475.62859896 58.06816486 491.60766602 63.16113281 C494.32071364 64.0187472 497.0344499 64.87414876 499.74829102 65.72924805 C501.22791272 66.19606992 502.70714233 66.66413839 504.18579102 67.1340332 C507.23566019 68.10300205 510.28591491 69.06458171 513.35107422 69.984375 C523.26508676 72.97166579 533.02746918 76.35700629 542.79516602 79.78613281 C543.67849609 80.09582001 544.56182617 80.4055072 545.47192383 80.72457886 C560.29671905 85.92893932 575.01107317 91.34301736 589.60766602 97.16113281 C591.39769043 97.86906982 591.39769043 97.86906982 593.22387695 98.59130859 C623.75931133 110.67798905 653.75738301 123.96059306 683.21118164 138.48632812 C686.59446611 140.15462394 689.98372333 141.81033581 693.37329102 143.46582031 C705.86284427 149.60153788 718.07247524 156.09582268 730.13500977 163.03222656 C734.5598893 165.5765127 739.02238685 168.04063339 743.50976562 170.47265625 C769.79916454 184.7400662 794.24876921 200.20862698 803.59985352 230.36035156 C808.57391642 249.2381046 809.51586249 271.06872234 801.60766602 289.16113281 C801.32890625 289.82790039 801.05014648 290.49466797 800.76293945 291.18164062 C796.35778685 301.5774105 790.70047339 309.34900083 782.60766602 317.16113281 C781.90125977 317.89847656 781.19485352 318.63582031 780.46704102 319.39550781 C770.85098345 328.86475534 757.45577696 333.83640235 744.60766602 337.16113281 C743.98666016 337.33620361 743.3656543 337.51127441 742.72583008 337.69165039 C716.46876188 343.51142242 693.04714295 329.26517769 671.33666992 316.73193359 C664.47768512 312.7839368 657.54839554 308.96306944 650.60766602 305.16113281 C649.61766602 304.61763184 648.62766602 304.07413086 647.60766602 303.51416016 C602.93196086 279.06199761 556.38343899 258.76436102 508.60766602 241.16113281 C507.27977051 240.67166168 507.27977051 240.67166168 505.92504883 240.17230225 C499.45267538 237.79090589 492.97025553 235.43821786 486.48266602 233.09863281 C485.63291199 232.79034546 484.78315796 232.48205811 483.90765381 232.16442871 C472.05276024 227.87482336 460.11183011 224.20125403 447.96710205 220.82510376 C442.32050335 219.23608951 436.71911917 217.49415543 431.10766602 215.78613281 C377.79895297 199.70711598 323.76353119 187.92906519 268.77787781 179.3139801 C263.46356456 178.47539128 258.16983737 177.55183185 252.87719727 176.58691406 C244.69613501 175.10968273 236.49225043 174.08395409 228.23266602 173.16113281 C226.73067698 172.99022419 225.22872454 172.81899365 223.72680664 172.64746094 C220.72807013 172.30567102 217.72900814 171.96693955 214.72973633 171.62988281 C211.204905 171.23192125 207.68334763 170.8106129 204.16235352 170.37988281 C180.7192827 167.56027599 157.15420254 165.85206868 133.60766602 164.16113281 C132.73277527 164.09734436 131.85788452 164.03355591 130.95648193 163.96783447 C79.14157798 160.21982637 26.43057817 160.98000532 -25.39233398 164.16113281 C-26.71542572 164.24104462 -26.71542572 164.24104462 -28.06524658 164.3225708 C-52.92832081 165.83444195 -77.67152198 168.1122571 -102.39233398 171.16113281 C-104.35734863 171.40283203 -104.35734863 171.40283203 -106.36206055 171.64941406 C-151.50869354 177.2827246 -196.12786063 185.7096255 -240.39233398 196.16113281 C-241.61275391 196.44778809 -242.83317383 196.73444336 -244.09057617 197.02978516 C-257.62003368 200.21451846 -271.06957688 203.4795359 -284.3605957 207.55078125 C-288.27221344 208.72586468 -292.20751555 209.81678496 -296.14233398 210.91113281 C-296.89409912 211.12205566 -297.64586426 211.33297852 -298.42041016 211.55029297 C-319.58472842 217.42645832 -340.42674181 214.75963627 -359.66186523 204.36035156 C-377.97185727 193.90880513 -390.37578746 176.11073446 -396.39233398 156.16113281 C-401.16912039 136.27869727 -398.8632234 114.68058446 -390.39233398 96.16113281 C-389.97338867 95.22914063 -389.55444336 94.29714844 -389.12280273 93.33691406 C-379.84409134 74.59231266 -361.85097244 61.99953328 -342.44311523 55.41894531 C-325.95696743 50.13998006 -309.07269007 45.98649528 -292.31610107 41.6585083 C-290.55801097 41.20396735 -288.80057695 40.74689075 -287.04321289 40.28955078 C-271.55723319 36.26931976 -255.9642989 32.79204284 -240.32302856 29.43972778 C-236.05487382 28.52382385 -231.79255215 27.58474783 -227.53295898 26.62988281 C-198.29418599 20.12473414 -168.80131929 15.18635184 -139.06616211 11.6171875 C-135.36228647 11.15740283 -131.66667008 10.65532025 -127.97045898 10.13769531 C-109.47901174 7.55025005 -90.99362998 5.69970931 -72.39233398 4.16113281 C-70.62817139 4.0103125 -70.62817139 4.0103125 -68.82836914 3.85644531 C-55.5928834 2.72628412 -42.38275487 1.89835667 -29.10351562 1.50244141 C-28.09409912 1.47102051 -27.08468262 1.43959961 -26.04467773 1.40722656 C-24.72971313 1.37133423 -24.72971313 1.37133423 -23.38818359 1.3347168 C-21.02799615 1.19796402 -18.75765745 0.96005036 -16.41711426 0.66035461 C-10.94073886 0.04598784 -5.50600795 0.00599509 0 0 Z " fill="#000000" transform="translate(771.392333984375,889.8388671875)"/>
<path d="M0 0 C1.31292023 0.00126892 2.62584045 0.00253784 3.97854614 0.00384521 C78.58740715 0.11922921 154.27173599 4.88446836 227.54443359 19.54101562 C231.49267963 20.30739559 235.451791 20.97212205 239.42089844 21.61987305 C271.64912107 26.89522224 304.03609737 34.6175335 335.18896484 44.35009766 C338.26508464 45.30911337 341.34517248 46.25472393 344.42578125 47.19921875 C349.86454666 48.8673986 355.30160155 50.5409909 360.73681641 52.22070312 C362.85775938 52.87411328 364.97986602 53.52375631 367.10302734 54.16992188 C416.416744 69.20702344 463.86835374 89.45589668 510.03063965 112.27801514 C512.84165975 113.66417605 515.65959938 115.03612242 518.4765625 116.41015625 C531.25228144 122.67589638 543.71092056 129.39420893 556.01953125 136.53320312 C558.92342244 138.21555322 561.83651905 139.88119964 564.75 141.546875 C586.41165589 154.02547616 606.43679959 167.36674462 613.5625 192.75 C614.93340698 198.96958852 615.16454594 205.01565885 615.1875 211.375 C615.19289795 212.28902588 615.1982959 213.20305176 615.20385742 214.14477539 C615.02096647 231.80249958 608.73473536 246.85066342 596.8125 259.8125 C583.95855348 272.2050228 568.0506296 276.61349103 550.57421875 276.390625 C533.45467429 275.45058666 519.16726826 267.42625425 504.8828125 258.640625 C486.11936293 247.10395496 466.54189536 237.07257161 446.875 227.1875 C446.26918091 226.88287842 445.66336182 226.57825684 445.03918457 226.2644043 C405.38506463 206.36693279 363.97745258 190.86066583 321.92547607 176.87115479 C320.11182998 176.26646213 318.30014721 175.65588783 316.48876953 175.04443359 C272.94068124 160.43341951 227.42639522 151.51406235 182.1484375 144.23046875 C178.49053085 143.63980989 174.87020786 142.99007561 171.25 142.203125 C163.08747995 140.53258302 154.7680801 139.72237267 146.5 138.75 C145.57926697 138.64078217 144.65853394 138.53156433 143.7098999 138.41903687 C126.83557109 136.42664317 109.94352721 134.80333749 92.99697876 133.56980896 C89.26473149 133.29561741 85.53482865 132.99824905 81.80487061 132.69458008 C65.49403661 131.4033403 49.30299081 130.87569027 32.9453125 130.88671875 C30.44994031 130.88280743 27.95456876 130.87846805 25.459198 130.87373352 C20.26428053 130.86634853 15.06943107 130.86650277 9.87451172 130.87182617 C4.6569755 130.87643188 -0.56032619 130.86962281 -5.77783203 130.85131836 C-38.68482618 130.73688255 -71.32576596 131.43812448 -104.125 134.1875 C-105.26059168 134.28195436 -105.26059168 134.28195436 -106.4191246 134.37831688 C-114.84697228 135.08186476 -123.26737894 135.84042422 -131.67871094 136.72216797 C-132.38459351 136.79602722 -133.09047607 136.86988647 -133.81774902 136.94598389 C-134.57914185 137.0256842 -135.34053467 137.10538452 -136.125 137.1875 C-137.40630798 137.32058563 -137.40630798 137.32058563 -138.71350098 137.45635986 C-174.29202777 141.15224695 -209.64623424 145.57239157 -244.9375 151.4375 C-245.8528653 151.58956909 -246.76823059 151.74163818 -247.71133423 151.89831543 C-264.89564419 154.76028265 -282.02567616 157.85451073 -299.125 161.1875 C-300.41720459 161.435 -301.70940918 161.6825 -303.04077148 161.9375 C-309.7327382 163.23172645 -316.30975073 164.63482097 -322.8125 166.6875 C-324.24688247 167.12278901 -325.68178237 167.5563765 -327.1171875 167.98828125 C-327.7987793 168.19404785 -328.48037109 168.39981445 -329.18261719 168.61181641 C-350.93127111 175.05768442 -373.1550383 177.6255051 -393.9140625 166.72265625 C-409.33489085 157.49187872 -418.56875047 144.22830553 -423.43359375 127.125 C-427.80500111 108.55269303 -425.6741641 89.77864737 -416.09765625 73.1875 C-404.27694515 55.21065618 -386.48188926 46.81835101 -366 42.4375 C-364.50502521 42.10739404 -363.01015581 41.77681048 -361.51538086 41.44580078 C-322.87134266 32.97687842 -283.86443653 25.33171599 -244.63330078 20.12329102 C-240.87788379 19.62026651 -237.18275381 19.01184361 -233.47436523 18.23071289 C-228.41344582 17.20898492 -223.35321626 16.48457175 -218.23046875 15.85546875 C-217.30174957 15.73865753 -216.3730304 15.62184631 -215.41616821 15.50149536 C-212.3821439 15.12157145 -209.34741335 14.74775139 -206.3125 14.375 C-205.26121918 14.24499603 -204.20993835 14.11499207 -203.12680054 13.98104858 C-154.85910622 8.01733024 -106.73199777 3.1511384 -58.125 1.1875 C-56.53585785 1.12234695 -56.53585785 1.12234695 -54.91461182 1.05587769 C-36.60679618 0.3200999 -18.32224351 -0.01858285 0 0 Z " fill="#000000" transform="translate(839.125,1213.8125)"/>
</svg>
